<mxfile host="Electron" modified="2024-09-25T18:07:44.703Z" agent="Mozilla/5.0 (Windows NT 10.0; Win64; x64) AppleWebKit/537.36 (KHTML, like Gecko) draw.io/21.2.8 Chrome/112.0.5615.165 Electron/24.2.0 Safari/537.36" etag="o3mwKbNjbLhmMxSam09V" version="21.2.8" type="device">
  <diagram name="Seite-1" id="4-Oxhifhysx-l5rLsJs3">
    <mxGraphModel dx="710" dy="704" grid="1" gridSize="10" guides="1" tooltips="1" connect="1" arrows="1" fold="1" page="1" pageScale="1" pageWidth="827" pageHeight="1169" math="0" shadow="0">
      <root>
        <mxCell id="0" />
        <mxCell id="1" parent="0" />
        <mxCell id="z1BM4s9Mm12SbgmIYTyS-2" value="" style="whiteSpace=wrap;html=1;aspect=fixed;movable=0;resizable=0;rotatable=0;deletable=0;editable=0;locked=1;connectable=0;" parent="1" vertex="1">
          <mxGeometry x="210" y="60" width="530" height="530" as="geometry" />
        </mxCell>
        <mxCell id="z1BM4s9Mm12SbgmIYTyS-1" value="Actor" style="shape=umlActor;verticalLabelPosition=bottom;verticalAlign=top;html=1;outlineConnect=0;" parent="1" vertex="1">
          <mxGeometry x="160" y="340" width="30" height="60" as="geometry" />
        </mxCell>
        <mxCell id="z1BM4s9Mm12SbgmIYTyS-3" value="Dividende" style="ellipse;whiteSpace=wrap;html=1;" parent="1" vertex="1">
          <mxGeometry x="540" y="460" width="60" height="50" as="geometry" />
        </mxCell>
        <mxCell id="z1BM4s9Mm12SbgmIYTyS-4" value="Partizipationskapital" style="ellipse;whiteSpace=wrap;html=1;" parent="1" vertex="1">
          <mxGeometry x="324" y="100" width="100" height="50" as="geometry" />
        </mxCell>
        <mxCell id="z1BM4s9Mm12SbgmIYTyS-6" value="Aktienkapital" style="ellipse;whiteSpace=wrap;html=1;" parent="1" vertex="1">
          <mxGeometry x="430" y="120" width="90" height="50" as="geometry" />
        </mxCell>
        <mxCell id="z1BM4s9Mm12SbgmIYTyS-7" value="Gesetzliche Reserve" style="ellipse;whiteSpace=wrap;html=1;" parent="1" vertex="1">
          <mxGeometry x="230" y="90" width="86" height="50" as="geometry" />
        </mxCell>
        <mxCell id="z1BM4s9Mm12SbgmIYTyS-8" value="Gewinnvortrag" style="ellipse;whiteSpace=wrap;html=1;" parent="1" vertex="1">
          <mxGeometry x="435" y="490" width="90" height="60" as="geometry" />
        </mxCell>
        <mxCell id="z1BM4s9Mm12SbgmIYTyS-9" value="GewÃ¼nschte Dividende" style="ellipse;whiteSpace=wrap;html=1;" parent="1" vertex="1">
          <mxGeometry x="280" y="490" width="90" height="50" as="geometry" />
        </mxCell>
        <mxCell id="z1BM4s9Mm12SbgmIYTyS-10" value="" style="endArrow=none;html=1;rounded=0;entryX=0.5;entryY=1;entryDx=0;entryDy=0;" parent="1" target="z1BM4s9Mm12SbgmIYTyS-7" edge="1">
          <mxGeometry width="50" height="50" relative="1" as="geometry">
            <mxPoint x="180" y="360" as="sourcePoint" />
            <mxPoint x="250" y="280" as="targetPoint" />
          </mxGeometry>
        </mxCell>
        <mxCell id="z1BM4s9Mm12SbgmIYTyS-11" value="" style="endArrow=none;html=1;rounded=0;entryX=0;entryY=0.5;entryDx=0;entryDy=0;" parent="1" target="z1BM4s9Mm12SbgmIYTyS-4" edge="1">
          <mxGeometry width="50" height="50" relative="1" as="geometry">
            <mxPoint x="190" y="360" as="sourcePoint" />
            <mxPoint x="240" y="310" as="targetPoint" />
          </mxGeometry>
        </mxCell>
        <mxCell id="z1BM4s9Mm12SbgmIYTyS-12" value="" style="endArrow=none;html=1;rounded=0;" parent="1" target="z1BM4s9Mm12SbgmIYTyS-6" edge="1">
          <mxGeometry width="50" height="50" relative="1" as="geometry">
            <mxPoint x="190" y="360" as="sourcePoint" />
            <mxPoint x="240" y="310" as="targetPoint" />
          </mxGeometry>
        </mxCell>
        <mxCell id="z1BM4s9Mm12SbgmIYTyS-13" value="" style="endArrow=none;html=1;rounded=0;exitX=0.5;exitY=0.5;exitDx=0;exitDy=0;exitPerimeter=0;" parent="1" source="z1BM4s9Mm12SbgmIYTyS-1" target="z1BM4s9Mm12SbgmIYTyS-3" edge="1">
          <mxGeometry width="50" height="50" relative="1" as="geometry">
            <mxPoint x="180" y="380" as="sourcePoint" />
            <mxPoint x="230" y="330" as="targetPoint" />
          </mxGeometry>
        </mxCell>
        <mxCell id="z1BM4s9Mm12SbgmIYTyS-14" value="" style="endArrow=none;html=1;rounded=0;entryX=0.133;entryY=0.702;entryDx=0;entryDy=0;entryPerimeter=0;exitX=0.5;exitY=0.5;exitDx=0;exitDy=0;exitPerimeter=0;" parent="1" source="z1BM4s9Mm12SbgmIYTyS-1" target="z1BM4s9Mm12SbgmIYTyS-8" edge="1">
          <mxGeometry width="50" height="50" relative="1" as="geometry">
            <mxPoint x="170" y="380" as="sourcePoint" />
            <mxPoint x="220" y="330" as="targetPoint" />
          </mxGeometry>
        </mxCell>
        <mxCell id="z1BM4s9Mm12SbgmIYTyS-16" value="" style="endArrow=none;html=1;rounded=0;" parent="1" target="z1BM4s9Mm12SbgmIYTyS-9" edge="1">
          <mxGeometry width="50" height="50" relative="1" as="geometry">
            <mxPoint x="180" y="370" as="sourcePoint" />
            <mxPoint x="230" y="340" as="targetPoint" />
          </mxGeometry>
        </mxCell>
        <mxCell id="z1BM4s9Mm12SbgmIYTyS-17" value="Berechne Gewinnverteilung" style="ellipse;whiteSpace=wrap;html=1;" parent="1" vertex="1">
          <mxGeometry x="460" y="290" width="120" height="80" as="geometry" />
        </mxCell>
        <mxCell id="z1BM4s9Mm12SbgmIYTyS-18" value="" style="endArrow=none;dashed=1;html=1;rounded=0;entryX=0.607;entryY=0.909;entryDx=0;entryDy=0;entryPerimeter=0;" parent="1" source="z1BM4s9Mm12SbgmIYTyS-19" target="z1BM4s9Mm12SbgmIYTyS-6" edge="1">
          <mxGeometry width="50" height="50" relative="1" as="geometry">
            <mxPoint x="510" y="280" as="sourcePoint" />
            <mxPoint x="560" y="230" as="targetPoint" />
          </mxGeometry>
        </mxCell>
        <mxCell id="z1BM4s9Mm12SbgmIYTyS-22" value="" style="endArrow=none;dashed=1;html=1;rounded=0;exitX=0.061;exitY=0.699;exitDx=0;exitDy=0;exitPerimeter=0;" parent="1" source="z1BM4s9Mm12SbgmIYTyS-23" target="z1BM4s9Mm12SbgmIYTyS-7" edge="1">
          <mxGeometry width="50" height="50" relative="1" as="geometry">
            <mxPoint x="316" y="330" as="sourcePoint" />
            <mxPoint x="366" y="280" as="targetPoint" />
          </mxGeometry>
        </mxCell>
        <mxCell id="z1BM4s9Mm12SbgmIYTyS-24" value="" style="endArrow=none;dashed=1;html=1;rounded=0;" parent="1" source="z1BM4s9Mm12SbgmIYTyS-25" target="z1BM4s9Mm12SbgmIYTyS-17" edge="1">
          <mxGeometry width="50" height="50" relative="1" as="geometry">
            <mxPoint x="570" y="460" as="sourcePoint" />
            <mxPoint x="620" y="410" as="targetPoint" />
          </mxGeometry>
        </mxCell>
        <mxCell id="z1BM4s9Mm12SbgmIYTyS-26" value="" style="endArrow=none;dashed=1;html=1;rounded=0;" parent="1" source="z1BM4s9Mm12SbgmIYTyS-27" target="z1BM4s9Mm12SbgmIYTyS-17" edge="1">
          <mxGeometry width="50" height="50" relative="1" as="geometry">
            <mxPoint x="470" y="490" as="sourcePoint" />
            <mxPoint x="520" y="440" as="targetPoint" />
          </mxGeometry>
        </mxCell>
        <mxCell id="z1BM4s9Mm12SbgmIYTyS-28" value="" style="endArrow=none;dashed=1;html=1;rounded=0;" parent="1" source="z1BM4s9Mm12SbgmIYTyS-29" target="z1BM4s9Mm12SbgmIYTyS-17" edge="1">
          <mxGeometry width="50" height="50" relative="1" as="geometry">
            <mxPoint x="340" y="490" as="sourcePoint" />
            <mxPoint x="390" y="440" as="targetPoint" />
          </mxGeometry>
        </mxCell>
        <mxCell id="z1BM4s9Mm12SbgmIYTyS-30" value="" style="endArrow=none;dashed=1;html=1;rounded=0;" parent="1" target="z1BM4s9Mm12SbgmIYTyS-29" edge="1">
          <mxGeometry width="50" height="50" relative="1" as="geometry">
            <mxPoint x="340" y="490" as="sourcePoint" />
            <mxPoint x="484" y="362" as="targetPoint" />
          </mxGeometry>
        </mxCell>
        <mxCell id="z1BM4s9Mm12SbgmIYTyS-29" value="Includes" style="text;html=1;strokeColor=none;fillColor=none;align=center;verticalAlign=middle;whiteSpace=wrap;rounded=0;" parent="1" vertex="1">
          <mxGeometry x="375" y="390" width="60" height="30" as="geometry" />
        </mxCell>
        <mxCell id="z1BM4s9Mm12SbgmIYTyS-31" value="" style="endArrow=none;dashed=1;html=1;rounded=0;" parent="1" target="z1BM4s9Mm12SbgmIYTyS-27" edge="1">
          <mxGeometry width="50" height="50" relative="1" as="geometry">
            <mxPoint x="470" y="490" as="sourcePoint" />
            <mxPoint x="508" y="369" as="targetPoint" />
          </mxGeometry>
        </mxCell>
        <mxCell id="z1BM4s9Mm12SbgmIYTyS-27" value="Includes" style="text;html=1;strokeColor=none;fillColor=none;align=center;verticalAlign=middle;whiteSpace=wrap;rounded=0;" parent="1" vertex="1">
          <mxGeometry x="460" y="420" width="60" height="30" as="geometry" />
        </mxCell>
        <mxCell id="z1BM4s9Mm12SbgmIYTyS-32" value="" style="endArrow=none;dashed=1;html=1;rounded=0;" parent="1" target="z1BM4s9Mm12SbgmIYTyS-25" edge="1">
          <mxGeometry width="50" height="50" relative="1" as="geometry">
            <mxPoint x="570" y="460" as="sourcePoint" />
            <mxPoint x="535" y="369" as="targetPoint" />
          </mxGeometry>
        </mxCell>
        <mxCell id="z1BM4s9Mm12SbgmIYTyS-25" value="Includes" style="text;html=1;strokeColor=none;fillColor=none;align=center;verticalAlign=middle;whiteSpace=wrap;rounded=0;" parent="1" vertex="1">
          <mxGeometry x="525" y="410" width="60" height="30" as="geometry" />
        </mxCell>
        <mxCell id="z1BM4s9Mm12SbgmIYTyS-33" value="" style="endArrow=none;dashed=1;html=1;rounded=0;exitX=0.061;exitY=0.699;exitDx=0;exitDy=0;exitPerimeter=0;" parent="1" source="z1BM4s9Mm12SbgmIYTyS-17" target="z1BM4s9Mm12SbgmIYTyS-23" edge="1">
          <mxGeometry width="50" height="50" relative="1" as="geometry">
            <mxPoint x="467" y="346" as="sourcePoint" />
            <mxPoint x="292" y="137" as="targetPoint" />
          </mxGeometry>
        </mxCell>
        <mxCell id="z1BM4s9Mm12SbgmIYTyS-23" value="Includes" style="text;html=1;strokeColor=none;fillColor=none;align=center;verticalAlign=middle;whiteSpace=wrap;rounded=0;" parent="1" vertex="1">
          <mxGeometry x="370" y="260" width="60" height="30" as="geometry" />
        </mxCell>
        <mxCell id="z1BM4s9Mm12SbgmIYTyS-35" value="" style="endArrow=none;dashed=1;html=1;rounded=0;entryX=0.607;entryY=0.909;entryDx=0;entryDy=0;entryPerimeter=0;" parent="1" source="z1BM4s9Mm12SbgmIYTyS-17" target="z1BM4s9Mm12SbgmIYTyS-19" edge="1">
          <mxGeometry width="50" height="50" relative="1" as="geometry">
            <mxPoint x="512" y="290" as="sourcePoint" />
            <mxPoint x="485" y="165" as="targetPoint" />
          </mxGeometry>
        </mxCell>
        <mxCell id="z1BM4s9Mm12SbgmIYTyS-19" value="Includes" style="text;html=1;strokeColor=none;fillColor=none;align=center;verticalAlign=middle;whiteSpace=wrap;rounded=0;" parent="1" vertex="1">
          <mxGeometry x="465" y="210" width="60" height="30" as="geometry" />
        </mxCell>
      </root>
    </mxGraphModel>
  </diagram>
</mxfile>
